# Blender v2.79 (sub 0) OBJ File: ''
# www.blender.org
mtllib ground.mtl
o Cube
v 30.000000 -0.020000 -19.999998
v 30.000000 -0.020000 20.000000
v -30.000004 -0.020000 19.999996
v -29.999989 -0.020000 -20.000008
v 30.000015 -0.000000 -19.999989
v 29.999981 -0.000000 20.000011
v -30.000011 -0.000000 19.999992
v -29.999998 -0.000000 -20.000000
vn 0.0000 -1.0000 0.0000
vn 0.0000 1.0000 0.0000
vn 1.0000 0.0003 0.0000
vn -0.0000 -0.0002 1.0000
vn -1.0000 -0.0003 -0.0000
vn 0.0000 0.0004 -1.0000
usemtl Material
s off
f 1//1 2//1 3//1 4//1
f 5//2 8//2 7//2 6//2
f 1//3 5//3 6//3 2//3
f 2//4 6//4 7//4 3//4
f 3//5 7//5 8//5 4//5
f 5//6 1//6 4//6 8//6
