# Blender v2.79 (sub 0) OBJ File: ''
# www.blender.org
mtllib paddle.mtl
o Cylinder.001
v 0.000000 3.008757 -0.100000
v 0.000000 3.008757 0.100000
v 0.195090 2.989542 -0.100000
v 0.195090 2.989542 0.100000
v 0.382683 2.932637 -0.100000
v 0.382683 2.932637 0.100000
v 0.555570 2.840227 -0.100000
v 0.555570 2.840227 0.100000
v 0.707107 2.715864 -0.100000
v 0.707107 2.715864 0.100000
v 0.831470 2.564327 -0.100000
v 0.831470 2.564327 0.100000
v 0.923880 2.391441 -0.100000
v 0.923880 2.391441 0.100000
v 0.980785 2.203847 -0.100000
v 0.980785 2.203847 0.100000
v 1.000000 2.008757 -0.100000
v 1.000000 2.008757 0.100000
v 0.980785 1.813667 -0.100000
v 0.980785 1.813667 0.100000
v 0.923880 1.626074 -0.100000
v 0.923880 1.626074 0.100000
v 0.831470 1.453187 -0.100000
v 0.831470 1.453187 0.100000
v 0.707107 1.301650 -0.100000
v 0.707107 1.301650 0.100000
v 0.555570 1.177287 -0.100000
v 0.555570 1.177287 0.100000
v 0.382683 1.084877 -0.100000
v 0.382683 1.084877 0.100000
v 0.195090 1.027972 -0.100000
v 0.195090 1.027972 0.100000
v -0.000000 1.008757 -0.100000
v -0.000000 1.008757 0.100000
v -0.195091 1.027972 -0.100000
v -0.195091 1.027972 0.100000
v -0.382684 1.084878 -0.100000
v -0.382684 1.084878 0.100000
v -0.555571 1.177288 -0.100000
v -0.555571 1.177288 0.100000
v -0.707107 1.301651 -0.100000
v -0.707107 1.301651 0.100000
v -0.831470 1.453187 -0.100000
v -0.831470 1.453187 0.100000
v -0.923880 1.626074 -0.100000
v -0.923880 1.626074 0.100000
v -0.980785 1.813668 -0.100000
v -0.980785 1.813668 0.100000
v -1.000000 2.008758 -0.100000
v -1.000000 2.008758 0.100000
v -0.980785 2.203848 -0.100000
v -0.980785 2.203848 0.100000
v -0.923879 2.391442 -0.100000
v -0.923879 2.391442 0.100000
v -0.831469 2.564328 -0.100000
v -0.831469 2.564328 0.100000
v -0.707106 2.715865 -0.100000
v -0.707106 2.715865 0.100000
v -0.555569 2.840228 -0.100000
v -0.555569 2.840228 0.100000
v -0.382682 2.932637 -0.100000
v -0.382682 2.932637 0.100000
v -0.195089 2.989543 -0.100000
v -0.195089 2.989543 0.100000
v 0.000000 0.000000 -0.100000
v 0.000000 1.000000 -0.100000
v 0.019509 0.000000 -0.098079
v 0.019509 1.000000 -0.098079
v 0.038268 0.000000 -0.092388
v 0.038268 1.000000 -0.092388
v 0.055557 0.000000 -0.083147
v 0.055557 1.000000 -0.083147
v 0.070711 0.000000 -0.070711
v 0.070711 1.000000 -0.070711
v 0.083147 0.000000 -0.055557
v 0.083147 1.000000 -0.055557
v 0.092388 0.000000 -0.038268
v 0.092388 1.000000 -0.038268
v 0.098079 0.000000 -0.019509
v 0.098079 1.000000 -0.019509
v 0.100000 0.000000 -0.000000
v 0.100000 1.000000 -0.000000
v 0.098079 0.000000 0.019509
v 0.098079 1.000000 0.019509
v 0.092388 0.000000 0.038268
v 0.092388 1.000000 0.038268
v 0.083147 0.000000 0.055557
v 0.083147 1.000000 0.055557
v 0.070711 0.000000 0.070711
v 0.070711 1.000000 0.070711
v 0.055557 0.000000 0.083147
v 0.055557 1.000000 0.083147
v 0.038268 0.000000 0.092388
v 0.038268 1.000000 0.092388
v 0.019509 0.000000 0.098079
v 0.019509 1.000000 0.098079
v -0.000000 0.000000 0.100000
v -0.000000 1.000000 0.100000
v -0.019509 0.000000 0.098079
v -0.019509 1.000000 0.098079
v -0.038268 0.000000 0.092388
v -0.038268 1.000000 0.092388
v -0.055557 0.000000 0.083147
v -0.055557 1.000000 0.083147
v -0.070711 0.000000 0.070711
v -0.070711 1.000000 0.070711
v -0.083147 0.000000 0.055557
v -0.083147 1.000000 0.055557
v -0.092388 0.000000 0.038268
v -0.092388 1.000000 0.038268
v -0.098079 0.000000 0.019509
v -0.098079 1.000000 0.019509
v -0.100000 0.000000 -0.000000
v -0.100000 1.000000 -0.000000
v -0.098079 0.000000 -0.019509
v -0.098079 1.000000 -0.019509
v -0.092388 0.000000 -0.038268
v -0.092388 1.000000 -0.038268
v -0.083147 0.000000 -0.055557
v -0.083147 1.000000 -0.055557
v -0.070711 0.000000 -0.070711
v -0.070711 1.000000 -0.070711
v -0.055557 0.000000 -0.083147
v -0.055557 1.000000 -0.083147
v -0.038268 0.000000 -0.092388
v -0.038268 1.000000 -0.092388
v -0.019509 0.000000 -0.098079
v -0.019509 1.000000 -0.098079
vn 0.0000 0.7279 -0.6857
vn 0.0000 0.7279 0.6857
vn 0.1420 0.7139 0.6857
vn 0.1420 0.7139 -0.6857
vn 0.2785 0.6725 0.6857
vn 0.2785 0.6725 -0.6857
vn 0.4044 0.6052 0.6857
vn 0.4044 0.6052 -0.6857
vn 0.5147 0.5147 0.6857
vn 0.5147 0.5147 -0.6857
vn 0.6052 0.4044 0.6857
vn 0.6052 0.4044 -0.6857
vn 0.6725 0.2785 0.6857
vn 0.6725 0.2785 -0.6857
vn 0.7139 0.1420 0.6857
vn 0.7139 0.1420 -0.6857
vn 0.7279 0.0000 0.6857
vn 0.7279 0.0000 -0.6857
vn 0.7139 -0.1420 0.6857
vn 0.7139 -0.1420 -0.6857
vn 0.6725 -0.2785 0.6857
vn 0.6725 -0.2785 -0.6857
vn 0.6052 -0.4044 0.6857
vn 0.6052 -0.4044 -0.6857
vn 0.5147 -0.5147 0.6857
vn 0.5147 -0.5147 -0.6857
vn 0.4044 -0.6052 0.6857
vn 0.4044 -0.6052 -0.6857
vn 0.2785 -0.6725 0.6857
vn 0.2785 -0.6725 -0.6857
vn 0.1420 -0.7139 0.6857
vn 0.1420 -0.7139 -0.6857
vn 0.0000 -0.7279 0.6857
vn 0.0000 -0.7279 -0.6857
vn -0.1420 -0.7139 0.6857
vn -0.1420 -0.7139 -0.6857
vn -0.2785 -0.6725 0.6857
vn -0.2785 -0.6725 -0.6857
vn -0.4044 -0.6052 0.6857
vn -0.4044 -0.6052 -0.6857
vn -0.5147 -0.5147 0.6857
vn -0.5147 -0.5147 -0.6857
vn -0.6052 -0.4044 0.6857
vn -0.6052 -0.4044 -0.6857
vn -0.6725 -0.2785 0.6857
vn -0.6725 -0.2785 -0.6857
vn -0.7139 -0.1420 0.6857
vn -0.7139 -0.1420 -0.6857
vn -0.7279 0.0000 0.6857
vn -0.7279 0.0000 -0.6857
vn -0.7139 0.1420 0.6857
vn -0.7139 0.1420 -0.6857
vn -0.6725 0.2785 0.6857
vn -0.6725 0.2785 -0.6857
vn -0.6052 0.4044 0.6857
vn -0.6052 0.4044 -0.6857
vn -0.5147 0.5147 0.6857
vn -0.5147 0.5147 -0.6857
vn -0.4044 0.6052 0.6857
vn -0.4044 0.6052 -0.6857
vn -0.2785 0.6725 0.6857
vn -0.2785 0.6725 -0.6857
vn -0.1420 0.7139 0.6857
vn -0.1420 0.7139 -0.6857
vn 0.0000 -0.6857 -0.7279
vn 0.0000 0.6857 -0.7279
vn 0.1420 0.6857 -0.7139
vn 0.1420 -0.6857 -0.7139
vn 0.2785 0.6857 -0.6725
vn 0.2785 -0.6857 -0.6725
vn 0.4044 0.6857 -0.6052
vn 0.4044 -0.6857 -0.6052
vn 0.5147 0.6857 -0.5147
vn 0.5147 -0.6857 -0.5147
vn 0.6052 0.6857 -0.4044
vn 0.6052 -0.6857 -0.4044
vn 0.6725 0.6857 -0.2785
vn 0.6725 -0.6857 -0.2785
vn 0.7139 0.6857 -0.1420
vn 0.7139 -0.6857 -0.1420
vn 0.7279 0.6857 0.0000
vn 0.7279 -0.6857 0.0000
vn 0.7139 0.6857 0.1420
vn 0.7139 -0.6857 0.1420
vn 0.6725 0.6857 0.2785
vn 0.6725 -0.6857 0.2785
vn 0.6052 0.6857 0.4044
vn 0.6052 -0.6857 0.4044
vn 0.5147 0.6857 0.5147
vn 0.5147 -0.6857 0.5147
vn 0.4044 0.6857 0.6052
vn 0.4044 -0.6857 0.6052
vn 0.2785 0.6857 0.6725
vn 0.2785 -0.6857 0.6725
vn 0.1420 0.6857 0.7139
vn 0.1420 -0.6857 0.7139
vn 0.0000 0.6857 0.7279
vn 0.0000 -0.6857 0.7279
vn -0.1420 0.6857 0.7139
vn -0.1420 -0.6857 0.7139
vn -0.2785 0.6857 0.6725
vn -0.2785 -0.6857 0.6725
vn -0.4044 0.6857 0.6052
vn -0.4044 -0.6857 0.6052
vn -0.5147 0.6857 0.5147
vn -0.5147 -0.6857 0.5147
vn -0.6052 0.6857 0.4044
vn -0.6052 -0.6857 0.4044
vn -0.6725 0.6857 0.2785
vn -0.6725 -0.6857 0.2785
vn -0.7139 0.6857 0.1420
vn -0.7139 -0.6857 0.1420
vn -0.7279 0.6857 0.0000
vn -0.7279 -0.6857 0.0000
vn -0.7139 0.6857 -0.1420
vn -0.7139 -0.6857 -0.1420
vn -0.6725 0.6857 -0.2785
vn -0.6725 -0.6857 -0.2785
vn -0.6052 0.6857 -0.4044
vn -0.6052 -0.6857 -0.4044
vn -0.5147 0.6857 -0.5147
vn -0.5147 -0.6857 -0.5147
vn -0.4044 0.6857 -0.6052
vn -0.4044 -0.6857 -0.6052
vn -0.2785 0.6857 -0.6725
vn -0.2785 -0.6857 -0.6725
vn -0.1420 0.6857 -0.7139
vn -0.1420 -0.6857 -0.7139
usemtl None
s 1
f 1//1 2//2 4//3 3//4
f 3//4 4//3 6//5 5//6
f 5//6 6//5 8//7 7//8
f 7//8 8//7 10//9 9//10
f 9//10 10//9 12//11 11//12
f 11//12 12//11 14//13 13//14
f 13//14 14//13 16//15 15//16
f 15//16 16//15 18//17 17//18
f 17//18 18//17 20//19 19//20
f 19//20 20//19 22//21 21//22
f 21//22 22//21 24//23 23//24
f 23//24 24//23 26//25 25//26
f 25//26 26//25 28//27 27//28
f 27//28 28//27 30//29 29//30
f 29//30 30//29 32//31 31//32
f 31//32 32//31 34//33 33//34
f 33//34 34//33 36//35 35//36
f 35//36 36//35 38//37 37//38
f 37//38 38//37 40//39 39//40
f 39//40 40//39 42//41 41//42
f 41//42 42//41 44//43 43//44
f 43//44 44//43 46//45 45//46
f 45//46 46//45 48//47 47//48
f 47//48 48//47 50//49 49//50
f 49//50 50//49 52//51 51//52
f 51//52 52//51 54//53 53//54
f 53//54 54//53 56//55 55//56
f 55//56 56//55 58//57 57//58
f 57//58 58//57 60//59 59//60
f 59//60 60//59 62//61 61//62
f 4//3 2//2 64//63 62//61 60//59 58//57 56//55 54//53 52//51 50//49 48//47 46//45 44//43 42//41 40//39 38//37 36//35 34//33 32//31 30//29 28//27 26//25 24//23 22//21 20//19 18//17 16//15 14//13 12//11 10//9 8//7 6//5
f 61//62 62//61 64//63 63//64
f 63//64 64//63 2//2 1//1
f 1//1 3//4 5//6 7//8 9//10 11//12 13//14 15//16 17//18 19//20 21//22 23//24 25//26 27//28 29//30 31//32 33//34 35//36 37//38 39//40 41//42 43//44 45//46 47//48 49//50 51//52 53//54 55//56 57//58 59//60 61//62 63//64
f 65//65 66//66 68//67 67//68
f 67//68 68//67 70//69 69//70
f 69//70 70//69 72//71 71//72
f 71//72 72//71 74//73 73//74
f 73//74 74//73 76//75 75//76
f 75//76 76//75 78//77 77//78
f 77//78 78//77 80//79 79//80
f 79//80 80//79 82//81 81//82
f 81//82 82//81 84//83 83//84
f 83//84 84//83 86//85 85//86
f 85//86 86//85 88//87 87//88
f 87//88 88//87 90//89 89//90
f 89//90 90//89 92//91 91//92
f 91//92 92//91 94//93 93//94
f 93//94 94//93 96//95 95//96
f 95//96 96//95 98//97 97//98
f 97//98 98//97 100//99 99//100
f 99//100 100//99 102//101 101//102
f 101//102 102//101 104//103 103//104
f 103//104 104//103 106//105 105//106
f 105//106 106//105 108//107 107//108
f 107//108 108//107 110//109 109//110
f 109//110 110//109 112//111 111//112
f 111//112 112//111 114//113 113//114
f 113//114 114//113 116//115 115//116
f 115//116 116//115 118//117 117//118
f 117//118 118//117 120//119 119//120
f 119//120 120//119 122//121 121//122
f 121//122 122//121 124//123 123//124
f 123//124 124//123 126//125 125//126
f 68//67 66//66 128//127 126//125 124//123 122//121 120//119 118//117 116//115 114//113 112//111 110//109 108//107 106//105 104//103 102//101 100//99 98//97 96//95 94//93 92//91 90//89 88//87 86//85 84//83 82//81 80//79 78//77 76//75 74//73 72//71 70//69
f 125//126 126//125 128//127 127//128
f 127//128 128//127 66//66 65//65
f 65//65 67//68 69//70 71//72 73//74 75//76 77//78 79//80 81//82 83//84 85//86 87//88 89//90 91//92 93//94 95//96 97//98 99//100 101//102 103//104 105//106 107//108 109//110 111//112 113//114 115//116 117//118 119//120 121//122 123//124 125//126 127//128
